<?xml version="1.0" encoding="UTF-8" standalone="no"?>
<svg
   xmlns:dc="http://purl.org/dc/elements/1.1/"
   xmlns:cc="http://creativecommons.org/ns#"
   xmlns:rdf="http://www.w3.org/1999/02/22-rdf-syntax-ns#"
   xmlns:svg="http://www.w3.org/2000/svg"
   xmlns="http://www.w3.org/2000/svg"
   xmlns:sodipodi="http://sodipodi.sourceforge.net/DTD/sodipodi-0.dtd"
   xmlns:inkscape="http://www.inkscape.org/namespaces/inkscape"
   version="1.1"
   x="0px"
   y="0px"
   viewBox="910 550 377.95275 377.95275"
   enable-background="new 910 550 100 100"
   xml:space="preserve"
   id="svg54"
   sodipodi:docname="screenGraphic.svg"
   width="100mm"
   height="100mm"
   inkscape:version="1.0.2 (e86c870879, 2021-01-15, custom)"><metadata
     id="metadata60"><rdf:RDF><cc:Work
         rdf:about=""><dc:format>image/svg+xml</dc:format><dc:type
           rdf:resource="http://purl.org/dc/dcmitype/StillImage" /><dc:title></dc:title></cc:Work></rdf:RDF></metadata><defs
     id="defs58" /><sodipodi:namedview
     pagecolor="#ffffff"
     bordercolor="#666666"
     borderopacity="1"
     objecttolerance="10"
     gridtolerance="10"
     guidetolerance="10"
     inkscape:pageopacity="0"
     inkscape:pageshadow="2"
     inkscape:window-width="1920"
     inkscape:window-height="986"
     id="namedview56"
     showgrid="false"
     inkscape:document-units="mm"
     units="mm"
     inkscape:zoom="1.532"
     inkscape:cx="201.87517"
     inkscape:cy="114.17383"
     inkscape:window-x="-11"
     inkscape:window-y="-11"
     inkscape:window-maximized="1"
     inkscape:current-layer="g48" /><g
     id="g48"
     style="fill:none;stroke:#000000"><path
       id="path46"
       style="fill:none;stroke:#000000;stroke-width:4.66608"
       d="m 1105.6395,654.2123 c 16.4293,7.22777 19.8869,22.02392 19.8869,33.16652 0,2.697 2.1884,4.88539 4.8854,4.88539 v 0 c 2.697,0 4.8854,-2.18839 4.8808,-4.88539 0,-19.86351 -9.1362,-34.81831 -25.7242,-42.1114 -2.4683,-1.08719 -5.3473,0.0327 -6.4391,2.50569 -1.0872,2.47302 0.033,5.35666 2.5056,6.43919 z m -18.4916,-5.5573 c 1.0125,0.14465 2.025,0.31263 3.0282,0.49927 0.2987,0.056 0.602,0.084 0.8959,0.084 2.3097,0 4.3628,-1.64246 4.7968,-3.9895 0.4899,-2.655 -1.2599,-5.20268 -3.9102,-5.69729 -1.1385,-0.21464 -2.2817,-0.40128 -3.4296,-0.5646 -2.6783,-0.38728 -5.1513,1.46982 -5.534,4.14349 -0.3826,2.67366 1.4792,5.14202 4.1529,5.52464 z m -12.6545,112.48527 c 43.6886,0 79.2348,-34.65034 79.2348,-77.23768 0,-20.34879 -8.2543,-36.86672 -23.8624,-47.76669 -13.7509,-9.59814 -32.9005,-14.67017 -55.3724,-14.67017 -22.4765,0 -41.6261,5.07203 -55.3724,14.67017 -15.6127,10.89997 -23.86699,27.4179 -23.86699,47.76669 0,42.58734 35.54619,77.23768 79.23939,77.23768 z M 1024.711,644.14756 c 12.0991,-8.44561 29.3123,-12.91105 49.7778,-12.91105 20.4654,0 37.6786,4.46544 49.7777,12.91105 13.0651,9.1222 19.6909,22.49519 19.6909,39.75503 0,37.20268 -31.1648,67.46223 -69.4686,67.46223 -38.3039,0 -69.4687,-30.26421 -69.4687,-67.46223 0,-17.25984 6.6259,-30.6375 19.6909,-39.75503 z m 112.5319,-46.04957 h 19.1823 c 2.697,0 4.8854,-2.1884 4.8854,-4.88539 v -8.60426 c 0,-9.44882 -7.6851,-17.13386 -17.1339,-17.13386 h -6.9338 c -2.697,0 -4.8854,2.1884 -4.8854,4.88539 v 20.85273 c 0,2.69699 2.1884,4.88539 4.8854,4.88539 z m 4.8854,-20.8574 h 2.0484 c 4.0595,0 7.3631,3.30359 7.3631,7.36775 v 3.7142 h -9.4162 v -11.08195 z m 3.8869,259.59755 h -49.2412 c -2.697,0 -4.8854,2.18839 -4.8854,4.88539 v 21.07203 c 0,2.697 2.1884,4.88539 4.8854,4.88539 h 49.2412 c 2.697,0 4.8853,-2.18839 4.8853,-4.88539 v -21.07203 c 0,-2.70166 -2.1883,-4.88539 -4.8853,-4.88539 z m -4.8854,21.06736 h -39.4704 v -11.30125 h 39.4704 z m 61.0977,-104.7489 v -67.26626 c 2.7623,-2.72499 4.4794,-6.50918 4.4794,-10.68533 v -27.20793 c 0,-16.80723 -13.4476,-30.52085 -30.1476,-30.97346 v -34.96296 c 0,-16.39195 -13.331,-29.72762 -29.7276,-29.72762 h -125.5736 c -26.92331,0 -48.82124,21.9026 -48.82124,48.82123 v 15.86935 c -16.69991,0.45261 -30.1429,14.16623 -30.1429,30.97346 v 27.20793 c 0,4.17148 1.70779,7.94634 4.46078,10.676 v 67.28026 c -20.48411,11.12394 -34.4217,32.83522 -34.4217,57.74278 v 109.83027 c 0,2.69699 2.18839,4.88539 4.88539,4.88539 h 314.56867 c 2.697,0 4.8854,-2.1884 4.8854,-4.88539 V 810.90405 c 0,-24.91222 -13.9469,-46.62351 -34.445,-57.74745 z m 24.6649,78.31088 h -19.9055 v -21.72995 h 19.8775 c 0.01,0.38728 0.028,21.72995 0.028,21.72995 z m -34.4357,-82.60368 c -6.7238,-2.33304 -13.9376,-3.61154 -21.45,-3.61154 h -19.6489 c 12.8784,-15.16478 21.38,-34.15573 23.4798,-55.01779 0,0 17.3578,-0.0233 17.6144,-0.0373 V 748.8638 Z M 1074.4934,588.95713 c 50.2304,0 91.0913,40.86556 91.0913,91.09128 0,50.22572 -40.8655,91.09128 -91.0913,91.09128 -50.2257,0 -91.09124,-40.86556 -91.09124,-91.09128 0,-50.22572 40.86084,-91.09128 91.09124,-91.09128 z m -67.3875,166.06124 c 17.8757,16.08399 41.5094,25.89209 67.3875,25.89209 25.8781,0 49.5118,-9.8081 67.3876,-25.89209 h 16.3826 c -20.89,24.23097 -51.5275,38.44386 -83.7702,38.44386 -32.2473,0 -62.8941,-14.21289 -83.77949,-38.44386 z m -21.30071,9.17818 c 21.54801,23.4704 51.77021,37.6133 83.80751,38.92447 v 112.72324 h -83.80751 z m 93.57831,38.92447 c 32.0373,-1.31117 62.2595,-15.45407 83.8075,-38.93846 v 151.66637 h -83.8075 z m 117.5526,-155.12394 v 27.20793 c 0,2.89764 -2.361,5.25868 -5.2586,5.25868 h -16.3313 c 0,-0.13998 0.01,-0.2753 0.01,-0.41528 0,-19.54623 -5.6086,-37.80461 -15.2721,-53.27268 h 15.6314 c 11.6979,0 21.2213,9.51881 21.2213,21.22135 z m -175.678,-85.89326 h 125.5736 c 11.0026,0 19.9569,8.94955 19.9569,19.95684 v 34.93963 h -13.653 c -18.501,-23.03645 -46.8708,-37.81394 -78.6422,-37.81394 -31.7713,0 -60.1504,14.78215 -78.6468,37.81394 h -13.6063 l -0.0327,-15.84602 c 0,-21.52931 17.51648,-39.05045 39.0505,-39.05045 z m -69.19803,85.89326 c 0,-11.70254 9.51881,-21.22135 21.22135,-21.22135 h 15.62205 c -9.66346,15.46807 -15.27209,33.72645 -15.27209,53.27268 0,0.13998 0.009,0.27996 0.009,0.41528 h -16.32196 c -2.9023,0 -5.25868,-2.36104 -5.25868,-5.25868 z m 4.46078,42.19539 c 0.26597,0.014 17.61913,0.042 17.61913,0.042 2.09974,20.86206 10.60134,39.85301 23.47973,55.01779 h -19.65354 c -7.50773,0 -14.72149,1.28317 -21.44532,3.61154 z m -34.4217,120.71158 c 0,-30.16623 24.021,-54.81248 53.93526,-55.83436 V 915.84893 H 922.09915 Z M 1172.9571,915.84893 V 755.06969 c 26.2001,0.90056 47.8787,19.91951 52.8527,44.89239 h -23.7083 c -2.697,0 -4.8854,2.1884 -4.8854,4.88539 v 31.5054 c 0,2.69699 2.1884,4.88539 4.8854,4.88539 h 24.7862 v 74.61067 z" /></g></svg>
